HIERARCHY
ROOT root
{
	OFFSET 0.000000 0.000000 0.000000
	CHANNELS 6 Xposition Yposition Zposition Zrotation Yrotation Xrotation
	JOINT lhip
	{
		OFFSET 0.058581 -0.082280 -0.017664
		CHANNELS 3 Zrotation Yrotation Xrotation
		JOINT lknee
		{
			OFFSET 0.043451 -0.386469 0.008037
			CHANNELS 3 Zrotation Yrotation Xrotation
			JOINT lankle
			{
				OFFSET -0.014790 -0.426874 -0.037428
				CHANNELS 3 Zrotation Yrotation Xrotation
				JOINT ltoe
				{
					OFFSET 0.041054 -0.060286 0.122042
					CHANNELS 3 Zrotation Yrotation Xrotation
					End Site
					{
						OFFSET 0.000000 0.000000 0.000000
					}
				}
			}
		}
	}
	JOINT rhip
	{
		OFFSET -0.060310 -0.090513 -0.013543
		CHANNELS 3 Zrotation Yrotation Xrotation
		JOINT rknee
		{
			OFFSET -0.043257 -0.383688 -0.004843
			CHANNELS 3 Zrotation Yrotation Xrotation
			JOINT rankle
			{
				OFFSET 0.019056 -0.420046 -0.034562
				CHANNELS 3 Zrotation Yrotation Xrotation
				JOINT rtoe
				{
					OFFSET -0.034840 -0.062106 0.130323
					CHANNELS 3 Zrotation Yrotation Xrotation
					End Site
					{
						OFFSET 0.000000 0.000000 0.000000
					}
				}
			}
		}
	}
	JOINT lowerback
	{
		OFFSET 0.004439 0.124404 -0.038385
		CHANNELS 3 Zrotation Yrotation Xrotation
		JOINT upperback
		{
			OFFSET 0.004488 0.137956 0.026820
			CHANNELS 3 Zrotation Yrotation Xrotation
			JOINT chest
			{
				OFFSET -0.002265 0.056032 0.002855
				CHANNELS 3 Zrotation Yrotation Xrotation
				JOINT lowerneck
				{
					OFFSET -0.013390 0.211636 -0.033468
					CHANNELS 3 Zrotation Yrotation Xrotation
					JOINT upperneck
					{
						OFFSET 0.010113 0.088937 0.050410
						CHANNELS 3 Zrotation Yrotation Xrotation
						End Site
						{
							OFFSET 0.000000 0.000000 0.000000
						}
					}
				}
				JOINT lclavicle
				{
					OFFSET 0.071702 0.114000 -0.018898
					CHANNELS 3 Zrotation Yrotation Xrotation
					JOINT lshoulder
					{
						OFFSET 0.122921 0.045205 -0.019046
						CHANNELS 3 Zrotation Yrotation Xrotation
						JOINT lelbow
						{
							OFFSET 0.255332 -0.015649 -0.022946
							CHANNELS 3 Zrotation Yrotation Xrotation
							JOINT lwrist
							{
								OFFSET 0.265709 0.012698 -0.007375
								CHANNELS 3 Zrotation Yrotation Xrotation
								End Site
								{
									OFFSET 0.000000 0.000000 0.000000
								}
							}
						}
					}
				}
				JOINT rclavicle
				{
					OFFSET -0.082954 0.112472 -0.023707
					CHANNELS 3 Zrotation Yrotation Xrotation
					JOINT rshoulder
					{
						OFFSET -0.113228 0.046853 -0.008472
						CHANNELS 3 Zrotation Yrotation Xrotation
						JOINT relbow
						{
							OFFSET -0.260127 -0.014369 -0.031269
							CHANNELS 3 Zrotation Yrotation Xrotation
							JOINT rwrist
							{
								OFFSET -0.269108 0.006794 -0.006027
								CHANNELS 3 Zrotation Yrotation Xrotation
								End Site
								{
									OFFSET 0.000000 0.000000 0.000000
								}
							}
						}
					}
				}
			}
		}
	}
}
MOTION
Frames: 11
Frame Time: 0.033333
-0.012077 0.483278 0.981944 -1.309280 1.319269 86.892916 12.178928 4.446378 -1.621813 -4.455225 -5.741770 4.961226 -3.623286 9.561869 -13.730715 0.000000 -0.000000 0.000000 -8.326526 -7.485423 -3.776981 4.766617 -8.089266 14.782239 7.956769 -6.974941 -12.345550 0.000000 -0.000000 0.000000 -2.618802 2.297475 9.438712 1.391872 -2.143812 -2.386369 1.475232 1.096351 -3.285485 -0.612009 2.182144 6.741816 -0.257301 -9.278699 3.734777 -12.587499 -10.889356 -3.615577 -32.610242 -15.113384 9.460965 -8.613784 -43.320213 27.215732 -10.190117 -5.550962 3.288616 14.445149 12.331579 -3.484781 36.586238 14.112654 17.536490 23.767949 56.016997 51.070713 14.619513 4.869112 10.978254 
-0.012647 0.482617 0.982406 -1.346453 1.380852 86.621254 12.144144 4.332607 -1.381849 -4.239746 -6.095391 5.199870 -3.838666 10.024990 -13.855565 0.000000 -0.000000 0.000000 -8.134532 -7.396311 -3.377595 4.811495 -7.386923 14.604789 8.446341 -7.724575 -12.419572 0.000000 -0.000000 0.000000 -3.079989 2.599616 9.312496 1.648143 -2.456026 -2.411771 1.760214 1.097723 -3.047433 -0.562528 2.437623 6.839202 -0.256162 -9.330491 3.220167 -8.709371 -11.654981 -5.324892 -28.542994 -16.673643 7.967287 -11.249023 -48.297579 30.427502 -4.592496 -7.334382 5.622674 10.928005 13.083994 -5.752873 34.066358 16.823637 16.312460 27.363630 61.365202 55.056503 9.345866 6.766840 12.776251 
-0.012904 0.482041 0.982684 -1.421341 1.434381 86.488466 12.107156 4.434985 -1.345688 -4.105649 -6.603944 5.542051 -4.069185 10.434617 -14.178072 0.000000 -0.000000 0.000000 -8.017171 -7.453399 -3.285055 4.803965 -6.865756 14.749338 8.990256 -7.945086 -12.498962 0.000000 -0.000000 0.000000 -3.360862 2.759734 9.330648 1.786982 -2.804969 -3.057959 2.004255 1.051166 -2.540861 -0.314648 2.865638 7.130986 -0.331380 -9.274680 2.950780 -4.725444 -12.226999 -7.238800 -24.090045 -17.308576 5.869810 -12.881544 -53.103227 33.698186 1.596163 -9.922982 10.259936 7.286149 13.817923 -8.056059 31.080141 19.820375 13.780285 29.647051 65.773548 56.764339 3.272115 7.541761 13.922917 
-0.013514 0.480737 0.983209 -1.777784 1.599301 86.190313 12.240817 4.880404 -1.161281 -3.916304 -7.063004 6.197270 -4.616522 10.558870 -14.752607 0.000000 -0.000000 0.000000 -7.757424 -7.349847 -3.121726 4.765542 -6.356334 14.985467 9.800290 -7.978143 -12.543481 0.000000 -0.000000 0.000000 -3.599845 2.878993 9.534151 1.891068 -3.106445 -3.659158 2.308663 1.024495 -2.035503 0.264160 3.392150 6.765054 -0.479817 -8.858824 3.379533 0.599414 -12.307921 -9.730975 -17.617758 -17.982217 1.473232 -8.025973 -58.280810 33.019683 12.934855 -18.053306 20.336430 1.918299 14.312975 -11.525314 25.208727 23.370690 8.737543 28.301451 70.697007 56.241753 -6.351835 13.730792 15.868715 
-0.013591 0.480092 0.983344 -1.956468 1.643488 86.052995 12.252021 5.050742 -1.023420 -3.811376 -7.203472 6.403092 -4.796490 10.646726 -14.974568 0.000000 -0.000000 0.000000 -7.693283 -7.360232 -3.091740 4.754887 -6.053576 15.196721 10.087927 -8.006975 -12.596398 0.000000 -0.000000 0.000000 -3.580696 2.914491 9.763739 1.817385 -3.139186 -3.973510 2.406047 0.991296 -1.871505 0.402644 3.395468 6.689518 -0.496876 -8.565249 3.502918 1.984600 -12.242106 -10.585667 -15.510987 -18.061292 -0.356069 -4.476023 -59.513481 30.014412 16.819295 -20.972118 23.077995 0.338260 14.423250 -12.610272 22.975764 24.368381 6.792638 26.038052 71.779128 53.663238 -9.892653 15.513294 16.542468 
-0.013668 0.478482 0.983675 -2.246035 1.721726 85.790806 12.313746 5.250945 -0.707704 -3.712182 -7.426094 6.736068 -5.018322 10.794955 -15.431842 0.000000 -0.000000 0.000000 -7.644333 -7.508837 -2.888824 4.804357 -5.602496 15.427888 10.460055 -8.069051 -12.727319 0.000000 -0.000000 0.000000 -3.481395 2.922131 10.212068 1.576345 -3.199152 -4.497839 2.531169 1.005649 -1.563222 0.531918 3.340266 6.516547 -0.229364 -7.746762 3.658392 4.536858 -11.779011 -11.711438 -12.053709 -17.949269 -3.804367 6.957902 -61.478259 18.555796 24.975035 -27.002618 23.415261 -2.408399 14.204360 -14.195120 18.672365 25.911851 2.443969 16.400532 73.433347 43.890050 -16.023788 19.776231 18.567866 
-0.013699 0.476460 0.983937 -2.466661 1.803246 85.527966 12.359397 5.272332 -0.363314 -3.623991 -7.647124 7.036069 -5.049328 11.010629 -15.803640 0.000000 -0.000000 0.000000 -7.580850 -7.600022 -2.665360 4.885200 -5.128386 15.661505 10.767116 -8.165069 -12.844782 0.000000 -0.000000 0.000000 -3.243073 3.032056 10.710651 1.309206 -3.309575 -4.943514 2.553183 0.825736 -1.196391 0.782804 3.261030 6.306801 0.157183 -7.120209 3.449199 6.402814 -11.362286 -13.308434 -9.114451 -18.049272 -8.030380 18.547650 -60.414433 6.493805 29.864998 -29.407837 24.757963 -4.683437 13.714524 -15.592412 14.874853 26.542900 -1.669302 0.036099 74.578972 27.337367 -20.700098 22.287688 19.538200 
-0.013705 0.474782 0.984065 -2.696679 1.917763 85.273997 12.421330 5.238617 -0.218643 -3.603284 -7.926279 7.599564 -5.108884 11.399169 -16.154584 0.000000 -0.000000 0.000000 -7.423969 -7.677216 -2.589046 4.954933 -4.541150 16.070517 10.828558 -8.514339 -13.056460 0.000000 -0.000000 0.000000 -3.013234 3.164929 11.468307 1.100851 -3.395404 -5.510465 2.628421 0.625418 -0.889818 0.959991 3.086722 6.137834 0.521411 -6.516119 3.106805 7.684996 -11.146034 -14.545581 -5.998447 -17.529488 -12.220709 27.814490 -57.500445 -4.385498 33.772192 -31.002324 24.385706 -6.176241 13.358904 -16.707864 11.048767 26.466269 -5.862079 -18.986968 73.459161 7.082472 -25.671542 24.624803 20.320520 
-0.013533 0.472904 0.983872 -2.880712 2.072508 85.018751 12.538411 5.289488 -0.063070 -3.668035 -8.479251 8.174589 -5.079632 11.974509 -16.564962 0.000000 -0.000000 0.000000 -7.239921 -7.707314 -2.473298 5.036467 -3.945657 16.465759 10.886741 -8.894190 -13.361661 0.000000 -0.000000 0.000000 -2.785162 3.251761 12.176812 1.003133 -3.530755 -5.974672 2.748788 0.499285 -0.582159 0.888172 3.214451 5.723371 0.774191 -5.715786 2.829299 8.925701 -10.924025 -15.579536 -3.559014 -16.624539 -15.855579 33.756203 -53.159285 -11.926217 36.295002 -31.565839 23.718716 -7.401473 12.930665 -17.590962 7.919062 25.730744 -9.893780 -33.745973 69.942238 -8.555418 -28.740306 25.712512 21.069615 
-0.013255 0.470948 0.983521 -3.012286 2.195077 84.917824 12.627409 5.288373 -0.155132 -3.739674 -8.724442 8.903845 -5.149300 12.213427 -16.957628 0.000000 -0.000000 0.000000 -7.121857 -7.903148 -2.495383 5.116726 -3.423865 16.857035 10.992778 -9.177442 -13.738922 0.000000 -0.000000 0.000000 -2.667306 3.290557 12.651453 1.035092 -3.706138 -6.428116 2.760848 0.757570 -0.234880 1.088279 3.420743 5.394773 0.824010 -5.443418 2.483112 9.791216 -10.628349 -16.522089 -1.114346 -15.759548 -18.442330 36.093909 -48.155599 -16.118758 38.025197 -32.344583 23.844817 -7.891883 12.381847 -18.128182 4.989594 24.726953 -13.675526 -41.780000 64.734841 -18.592690 -31.851779 27.131145 21.914942 
-0.013090 0.468965 0.983276 -3.224063 2.307273 84.719082 12.715743 5.487254 -0.010070 -3.771670 -9.136418 9.460916 -5.160543 12.633753 -17.321340 0.000000 -0.000000 0.000000 -7.033114 -8.004721 -2.440074 5.306731 -2.738585 17.335883 10.858170 -9.596965 -14.069968 0.000000 -0.000000 0.000000 -2.470242 3.237843 13.179776 1.009697 -3.826703 -6.581653 2.849368 0.749915 -0.022926 0.754138 3.651869 4.970407 1.066113 -5.014093 1.715951 11.251228 -9.813356 -16.388798 -0.168486 -13.582802 -20.166073 37.282594 -43.247230 -18.585599 40.360742 -31.774395 23.253144 -8.728569 11.982115 -18.742609 3.115156 23.541075 -16.923390 -44.696739 58.770941 -22.784837 -34.268271 27.354116 22.417000 
